<?xml version="1.0" encoding="UTF-8"?>
<svg width="135.47mm" height="135.47mm" version="1.1" viewBox="0 0 135.47 135.47" xmlns="http://www.w3.org/2000/svg" xmlns:cc="http://creativecommons.org/ns#" xmlns:dc="http://purl.org/dc/elements/1.1/" xmlns:rdf="http://www.w3.org/1999/02/22-rdf-syntax-ns#">
 <metadata>
  <rdf:RDF>
   <cc:Work rdf:about="">
    <dc:format>image/svg+xml</dc:format>
    <dc:type rdf:resource="http://purl.org/dc/dcmitype/StillImage"/>
    <dc:title/>
    <dc:rights>
     <cc:Agent>
      <dc:title>Copyright (C) 2021 chipmunk.sm &lt;dannico@linuxmail.org&gt;</dc:title>
     </cc:Agent>
    </dc:rights>
   </cc:Work>
  </rdf:RDF>
 </metadata>
 <g opacity=".999" aria-label="TCP">
  <path d="m101.79 47.366v16.428h7.438q4.1289 0 6.3838-2.1377 2.2548-2.1377 2.2548-6.0909 0-3.924-2.2548-6.0616-2.2548-2.1377-6.3838-2.1377zm-5.9152-4.861h13.353q7.3501 0 11.098 3.3383 3.7776 3.309 3.7776 9.7221 0 6.4716-3.7776 9.7806-3.7483 3.309-11.098 3.309h-7.438v17.57h-5.9152zm-11.052 3.3676v6.2373q-2.9869-2.7819-6.3838-4.1582-3.3676-1.3763-7.1744-1.3763-7.4965 0-11.479 4.5975-3.9825 4.5682-3.9825 13.236 0 8.6386 3.9825 13.236 3.9825 4.5682 11.479 4.5682 3.8068 0 7.1744-1.3763 3.3969-1.3763 6.3838-4.1582v6.1788q-3.104 2.1084-6.5887 3.1626-3.4554 1.0542-7.3208 1.0542-9.927 0-15.637-6.0616-5.7102-6.0909-5.7102-16.604 0-10.542 5.7102-16.604 5.7102-6.0909 15.637-6.0909 3.924 0 7.3794 1.0542 3.4847 1.0249 6.5302 3.104zm-73.806-3.3676h36.985v4.9782h-15.52v38.742h-5.9445v-38.742h-15.52z" stroke="#fff" stroke-width="6.365" style="font-variant-caps:normal;font-variant-east-asian:normal;font-variant-ligatures:normal;font-variant-numeric:normal"/>
  <path d="m101.79 47.366v16.428h7.438q4.1289 0 6.3838-2.1377 2.2548-2.1377 2.2548-6.0909 0-3.924-2.2548-6.0616-2.2548-2.1377-6.3838-2.1377zm-5.9152-4.861h13.353q7.3501 0 11.098 3.3383 3.7776 3.309 3.7776 9.7221 0 6.4716-3.7776 9.7806-3.7483 3.309-11.098 3.309h-7.438v17.57h-5.9152zm-11.052 3.3676v6.2373q-2.9869-2.7819-6.3838-4.1582-3.3676-1.3763-7.1744-1.3763-7.4965 0-11.479 4.5975-3.9825 4.5682-3.9825 13.236 0 8.6386 3.9825 13.236 3.9825 4.5682 11.479 4.5682 3.8068 0 7.1744-1.3763 3.3969-1.3763 6.3838-4.1582v6.1788q-3.104 2.1084-6.5887 3.1626-3.4554 1.0542-7.3208 1.0542-9.927 0-15.637-6.0616-5.7102-6.0909-5.7102-16.604 0-10.542 5.7102-16.604 5.7102-6.0909 15.637-6.0909 3.924 0 7.3794 1.0542 3.4847 1.0249 6.5302 3.104zm-73.806-3.3676h36.985v4.9782h-15.52v38.742h-5.9445v-38.742h-15.52z" stroke-width=".26458" style="font-variant-caps:normal;font-variant-east-asian:normal;font-variant-ligatures:normal;font-variant-numeric:normal"/>
 </g>
</svg>
