<svg width="135.47mm" height="135.47mm" version="1.1" viewBox="0 0 135.47 135.47" xmlns="http://www.w3.org/2000/svg" xmlns:cc="http://creativecommons.org/ns#" xmlns:dc="http://purl.org/dc/elements/1.1/" xmlns:rdf="http://www.w3.org/1999/02/22-rdf-syntax-ns#">
 <metadata>
  <rdf:RDF>
   <cc:Work rdf:about="">
    <dc:format>image/svg+xml</dc:format>
    <dc:type rdf:resource="http://purl.org/dc/dcmitype/StillImage"/>
    <dc:title/>
    <dc:rights>
     <cc:Agent>
      <dc:title>Copyright (C) 2021 chipmunk.sm &lt;dannico@linuxmail.org&gt;</dc:title>
     </cc:Agent>
    </dc:rights>
   </cc:Work>
  </rdf:RDF>
 </metadata>
 <g opacity=".999" aria-label="TCP">
  <rect x="5.7796" y="15.065" width="123.91" height="105.34" fill="#404040" opacity=".95"/>
  <rect x="8.3325" y="19.615" width="119.34" height="49.725" fill="#0000e3"/>
  <rect x="8.3325" y="69.34" width="118.67" height="45.299" fill="#c8c800"/>
  <path d="m101.96 39.581v27.162h7.438q4.1289 0 6.3838-3.5345 2.2548-3.5345 2.2548-10.071 0-6.488-2.2548-10.022-2.2548-3.5345-6.3838-3.5345zm-5.9152-8.0372h13.353q7.3501 0 11.098 5.5196 3.7776 5.4711 3.7776 16.075 0 10.7-3.7776 16.171-3.7483 5.4711-11.098 5.4711h-7.438v29.05h-5.9152zm-11.052 5.568v10.313q-2.9869-4.5996-6.3838-6.8752-3.3676-2.2756-7.1744-2.2756-7.4965 0-11.479 7.6015-3.9825 7.5531-3.9825 21.884 0 14.283 3.9825 21.884 3.9825 7.5531 11.479 7.5531 3.8068 0 7.1744-2.2756 3.3969-2.2756 6.3838-6.8752v10.216q-3.104 3.486-6.5887 5.2291-3.4554 1.743-7.3208 1.743-9.927 0-15.637-10.022-5.7102-10.071-5.7102-27.453 0-17.43 5.7102-27.453 5.7102-10.071 15.637-10.071 3.924 0 7.3794 1.743 3.4847 1.6946 6.5302 5.1322zm-73.806-5.568h36.985v8.231h-15.52v64.056h-5.9445v-64.056h-15.52z" fill="#fff" stroke="#fff" stroke-width="4.465" style="font-variant-caps:normal;font-variant-east-asian:normal;font-variant-ligatures:normal;font-variant-numeric:normal"/>
 </g>
</svg>
